<svg xmlns="http://www.w3.org/2000/svg" width="26" height="20" viewBox="0 0 26 20">
  <g fill="none" fill-rule="evenodd" transform="translate(0 -2)">
    <rect width="24" height="24" x="1" fill="none"/>
    <path fill="#3D3D33" d="M13.8425926,14.2222222 L12.9677407,14.2222222 L12.6576667,13.9222222 C13.7429259,12.6555556 14.3962963,11.0111111 14.3962963,9.22222222 C14.3962963,5.23333333 11.1737407,2 7.19814815,2 C3.22255556,2 0,5.23333333 0,9.22222222 C0,13.2111111 3.22255556,16.4444444 7.19814815,16.4444444 C8.98107407,16.4444444 10.620037,15.7888889 11.8824815,14.7 L12.1814815,15.0111111 L12.1814815,15.8888889 L17.7185185,21.4333333 L19.3685556,19.7777778 L13.8425926,14.2222222 L13.8425926,14.2222222 Z M7.19814815,14.2222222 C4.4407037,14.2222222 2.21481481,11.9888889 2.21481481,9.22222222 C2.21481481,6.45555556 4.4407037,4.22222222 7.19814815,4.22222222 C9.95559259,4.22222222 12.1814815,6.45555556 12.1814815,9.22222222 C12.1814815,11.9888889 9.95559259,14.2222222 7.19814815,14.2222222 L7.19814815,14.2222222 Z M7.2254434,13.3888889 C5.71445618,13.3888889 4.37874348,12.6126761 3.59907407,11.4362285 C3.61720592,10.2294601 6.01665363,9.56846635 7.2254434,9.56846635 C8.42818923,9.56846635 10.8336809,10.2294601 10.8518127,11.4362285 C10.0721433,12.6126761 8.73643062,13.3888889 7.2254434,13.3888889 L7.2254434,13.3888889 Z M7.2254434,4.77777778 C8.22873891,4.77777778 9.03862806,5.59037559 9.03862806,6.5970266 C9.03862806,7.60367762 8.22873891,8.41627543 7.2254434,8.41627543 C6.22214789,8.41627543 5.41225874,7.60367762 5.41225874,6.5970266 C5.41225874,5.59037559 6.22214789,4.77777778 7.2254434,4.77777778 L7.2254434,4.77777778 Z M25.6285714,8.32653061 L21.9673469,8.32653061 L21.9673469,12 L20.7469388,12 L20.7469388,8.32653061 L17.0857143,8.32653061 L17.0857143,7.10204082 L20.7469388,7.10204082 L20.7469388,3.42857143 L21.9673469,3.42857143 L21.9673469,7.10204082 L25.6285714,7.10204082 L25.6285714,8.32653061 L25.6285714,8.32653061 Z"/>
  </g>
</svg>
