<svg xmlns="http://www.w3.org/2000/svg" width="24" height="20" viewBox="0 0 24 20">
  <g fill="none" fill-rule="evenodd" transform="translate(0 -2)">
    <rect width="24" height="24" fill="none"/>
    <path fill="#000000" d="M10.8113557,21.1555918 C10.8113557,21.1555918 1.69076574,12.0830546 1.10967552,11.3050476 C0.528585303,10.5270406 -1.65780998,6.38336702 2.40115224,3.27901762 C6.46011447,0.174668217 10.1507557,3.69737285 10.1507557,3.69737285 L11.9985532,5.46491752 L13.8305387,3.69737285 C13.8305387,3.69737285 17.5211799,0.174668217 21.5801422,3.27901762 C25.6391044,6.38336702 23.5077376,10.4002213 22.8716189,11.3050476 C22.2355002,12.2098739 13.1699387,21.1555918 13.1699387,21.1555918 C13.1699387,21.1555918 12.563336,21.7830008 12.0218769,21.7830008 C11.4179584,21.7830008 10.8113557,21.1555918 10.8113557,21.1555918 Z"/>
  </g>
</svg>
