<svg xmlns="http://www.w3.org/2000/svg" width="24" height="21" viewBox="0 0 24 21">
  <g fill="none" fill-rule="evenodd" transform="translate(0 -1)">
    <polygon points="0 0 24 0 24 24 0 24"/>
    <path fill="#000000" d="M12.7071073,1.00000093 L11.2928937,1 L11.2928936,8.77817534 L8.81802,6.30330175 L7.75735982,7.36396192 L12.0000003,11.6066024 L16.2426409,7.36396167 L15.1819808,6.30330156 L12.7071071,8.77817529 L12.7071073,1.00000093 Z M23.7099976,17.6197477 C20.6599986,14.7297476 16.5399999,12.949748 11.9999993,12.949748 C7.45999958,12.949748 3.33999971,14.7297476 0.290000004,17.6197477 C0.110000007,17.799748 0,18.049748 0,18.3297468 C0,18.6097456 0.109999992,18.8597474 0.290000004,19.0397458 L2.76999981,21.5197452 C2.94999986,21.6997455 3.19999985,21.8097462 3.4799998,21.8097462 C3.74999978,21.8097462 3.99999976,21.6997455 4.17999957,21.5297455 C4.96999949,20.7897457 5.86999953,20.169745 6.83999974,19.6797452 C7.16999964,19.5197453 7.39999965,19.1797452 7.39999965,18.7797456 L7.39999965,15.6797454 C8.84999985,15.1997459 10.399999,14.9497459 11.9999993,14.9497459 C13.5999995,14.9497459 15.1499987,15.1997459 16.5999993,15.6697461 L16.5999993,18.7697453 C16.5999993,19.1597447 16.8299989,19.5097451 17.1599988,19.669745 C18.1399982,20.1597447 19.0299995,20.7897457 19.8299987,21.5197452 C20.009999,21.6997455 20.259999,21.7997459 20.5299994,21.7997459 C20.8100001,21.7997459 21.06,21.6897453 21.2399984,21.509745 L23.7199979,19.0297456 C23.8999982,18.8497453 24.0099988,18.5997454 24.0099988,18.3197466 C24.0099988,18.0397478 23.8899979,17.7997461 23.7099995,17.6197458 L23.7099976,17.6197477 L23.7099976,17.6197477 Z"/>
  </g>
</svg>
