<svg xmlns="http://www.w3.org/2000/svg" width="20" height="20" viewBox="0 0 20 20">
  <g fill="none" fill-rule="evenodd" transform="translate(-2 -2)">
    <rect width="24" height="24" fill="none"/>
    <path fill="#3D3D33" d="M15.8425926,14.2222222 L14.9677407,14.2222222 L14.6576667,13.9222222 C15.7429259,12.6555556 16.3962963,11.0111111 16.3962963,9.22222222 C16.3962963,5.23333333 13.1737407,2 9.19814815,2 C5.22255556,2 2,5.23333333 2,9.22222222 C2,13.2111111 5.22255556,16.4444444 9.19814815,16.4444444 C10.9810741,16.4444444 12.620037,15.7888889 13.8824815,14.7 L14.1814815,15.0111111 L14.1814815,15.8888889 L19.7185185,21.4333333 L21.3685556,19.7777778 L15.8425926,14.2222222 L15.8425926,14.2222222 Z M9.19814815,14.2222222 C6.4407037,14.2222222 4.21481481,11.9888889 4.21481481,9.22222222 C4.21481481,6.45555556 6.4407037,4.22222222 9.19814815,4.22222222 C11.9555926,4.22222222 14.1814815,6.45555556 14.1814815,9.22222222 C14.1814815,11.9888889 11.9555926,14.2222222 9.19814815,14.2222222 L9.19814815,14.2222222 Z M9.2254434,13.3888889 C7.71445618,13.3888889 6.37874348,12.6126761 5.59907407,11.4362285 C5.61720592,10.2294601 8.01665363,9.56846635 9.2254434,9.56846635 C10.4281892,9.56846635 12.8336809,10.2294601 12.8518127,11.4362285 C12.0721433,12.6126761 10.7364306,13.3888889 9.2254434,13.3888889 L9.2254434,13.3888889 Z M9.2254434,4.77777778 C10.2287389,4.77777778 11.0386281,5.59037559 11.0386281,6.5970266 C11.0386281,7.60367762 10.2287389,8.41627543 9.2254434,8.41627543 C8.22214789,8.41627543 7.41225874,7.60367762 7.41225874,6.5970266 C7.41225874,5.59037559 8.22214789,4.77777778 9.2254434,4.77777778 L9.2254434,4.77777778 Z"/>
  </g>
</svg>
