<svg width="24" height="19" viewBox="0 0 24 19" xmlns="http://www.w3.org/2000/svg"><title>phone_inbound</title><desc>Created with Sketch.</desc><path d="M23.504 14.579c-2.975-2.876-7.14-4.661-11.603-4.661s-8.628 1.785-11.603 4.661c-.198.198-.298.397-.298.694 0 .298.099.496.298.694l2.479 2.479c.198.198.397.298.694.298.298 0 .496-.099.694-.298.793-.694 1.686-1.388 2.678-1.884.298-.198.595-.496.595-.893v-3.074c1.388-.496 2.975-.694 4.562-.694 1.587 0 3.074.298 4.562.694v3.074c0 .397.198.694.595.893.992.496 1.884 1.091 2.678 1.884.198.198.397.298.694.298.298 0 .496-.099.694-.298l2.479-2.479c.198-.198.298-.397.298-.694-.198-.298-.298-.496-.496-.694zm-2.479-10.314l-1.388-1.388-3.57 3.57 1.388 1.388c0-.099 3.372-3.57 3.57-3.57zm-8.132-4.264h-1.983v4.959h1.983v-4.959zm-6.545 7.736l1.388-1.388-3.471-3.57-1.488 1.488c.198 0 3.57 3.471 3.57 3.471z" fill="#000"/></svg>