<svg xmlns="http://www.w3.org/2000/svg" width="20" height="20" viewBox="0 0 20 20">
  <g fill="none" fill-rule="evenodd" transform="translate(-3 -1)">
    <polygon points="0 0 24 0 24 24 0 24"/>
    <path fill="#3D3D33" d="M20,15.5 C18.75,15.5 17.55,15.3 16.43,14.93 C16.08,14.82 15.69,14.9 15.41,15.17 L13.21,17.37 C10.38,15.93 8.06,13.62 6.62,10.78 L8.82,8.57 C9.1,8.31 9.18,7.92 9.07,7.57 C8.7,6.45 8.5,5.25 8.5,4 C8.5,3.45 8.05,3 7.5,3 L4,3 C3.45,3 3,3.45 3,4 C3,13.39 10.61,21 20,21 C20.55,21 21,20.55 21,20 L21,16.5 C21,15.95 20.55,15.5 20,15.5 Z M23,6.64285714 L19.1428571,6.64285714 L19.1428571,10.5 L17.8571429,10.5 L17.8571429,6.64285714 L14,6.64285714 L14,5.35714286 L17.8571429,5.35714286 L17.8571429,1.5 L19.1428571,1.5 L19.1428571,5.35714286 L23,5.35714286 L23,6.64285714 Z"/>
  </g>
</svg>
