<svg xmlns="http://www.w3.org/2000/svg" width="24" height="25" viewBox="0 0 24 25">
  <path fill="#000000" fill-rule="evenodd" d="M11.9933333,0.416666667 C5.36,0.416666667 0,5.79 0,12.4166667 C0,19.0433333 5.36,24.4166667 11.9933333,24.4166667 C18.6266667,24.4166667 24,19.0433333 24,12.4166667 C24,5.79 18.6266667,0.416666667 11.9933333,0.416666667 L11.9933333,0.416666667 Z M5.60992432,13.4085704 L5.60992432,11.4222752 C5.60992432,11.4222752 2.71879094,11.4222752 2.71905426,11.4222752 C3.1813781,7.0600976 6.65074828,3.59325465 11.0140847,3.13482649 C11.0230404,3.13649366 11.0230404,5.7401123 11.0230404,5.7401123 L13.0016554,5.7401123 C13.0016554,5.7401123 13.0016554,3.13482649 13.0016554,3.13649366 C17.360935,3.60195224 20.8244893,7.07066117 21.2820033,11.4323055 C21.2820033,11.4323055 18.4327393,11.4323055 18.4327393,11.4323055 L18.4327393,13.4085704 C18.4327393,13.4085704 21.2820033,13.4052087 21.2816423,13.4052087 C20.8231453,17.7638154 17.3667403,21.2298229 13.0060235,21.6964955 C13.0060235,21.6994434 13.0060235,18.9421997 13.0060235,18.9421997 L11.0230404,18.9421997 C11.0230404,18.9421997 11.0230404,21.6964955 11.0230404,21.6994434 C6.65466662,21.244735 3.18037463,17.7749019 2.71879094,13.4085704 C2.71879094,13.4085704 5.60992432,13.4085704 5.60992432,13.4085704 Z M6.38961039,17.0649351 C6.38961039,15.1948052 10.1298701,14.1662338 12,14.1662338 C13.8701299,14.1662338 17.6103896,15.1948052 17.6103896,17.0649351 L17.6103896,18 L6.38961039,18 L6.38961039,17.0649351 L6.38961039,17.0649351 Z M14.8051948,9.58441558 C14.8051948,11.1366234 13.5475325,12.3896104 12,12.3896104 C10.4524675,12.3896104 9.19480519,11.1366234 9.19480519,9.58441558 C9.19480519,8.03688312 10.4524675,6.77922078 12,6.77922078 C13.5475325,6.77922078 14.8051948,8.03688312 14.8051948,9.58441558 L14.8051948,9.58441558 Z" transform="translate(0 .25)"/>
</svg>
